:version 1.10
:name ASF
:units
  mass 1
  length 1
  angle deg
:documentation
  ASF file generated by Kaydara
:root
  axis xyz
  order  tx ty tz rx ry rz
  position 0 0 0
  orientation 0 0 0
:bonedata
  begin
    id 1
    name RightUpLegDummy
    direction -0.718183 -0.695806 0.00816078
    length 4.904
    axis 0 0 0 xyz
  end
  begin
    id 2
    name RightUpLeg
    direction 3.53373e-006 -0.995788 0.0916898
    length 17.4976
    axis -3.49089 -0.000906625 0.000286804 xyz
    dof rx ry rz
  end
  begin
    id 3
    name RightLeg
    direction 0.00371092 -0.995096 -0.0988419
    length 16.5821
    axis 3.68512 0.0193738 -0.131023 xyz
    dof rx ry rz
  end
  begin
    id 4
    name RightFoot
    direction 0.00079151 -0.46099 0.887405
    length 3.77069
    axis 4.81691e-005 -0.120479 -0.188788 xyz
    dof rx ry rz
  end
  begin
    id 5
    name RightToes
    direction 0 0 0
    length 0
    axis 0 0 0 xyz
    dof rx ry rz
  end
  begin
    id 6
    name SpineDummy
    direction 8.3039e-015 1 4.57515e-016
    length 4.6813
    axis 0 0 0 xyz
  end
  begin
    id 7
    name Spine
    direction -3.15643e-008 0.999988 0.00495137
    length 10.1015
    axis -0.001389 0.000121418 2.40972e-006 xyz
    dof rx ry rz
  end
  begin
    id 8
    name Spine1
    direction 0 0 0
    length 0
    axis -0.001389 0.000121451 1.30017e-006 xyz
    dof rx ry rz
  end
  begin
    id 9
    name HEadDummy
    direction -1.99912e-008 0.999999 0.00127422
    length 3.43865
    axis -0.001389 0.000121451 1.30017e-006 xyz
  end
  begin
    id 10
    name HEad
    direction 0 0 0
    length 0
    axis 0 0 0 xyz
    dof rx ry rz
  end
  begin
    id 11
    name LeftShoulder1Dummy
    direction 0.998891 -0.0402509 -0.0244456
    length 3.5433
    axis -0.001389 0.000121451 1.30017e-006 xyz
  end
  begin
    id 12
    name LeftShoulder1
    direction 0.99951 -0.000327763 0.0313091
    length 4.05031
    axis -0.001389 0.000121451 1.30017e-006 xyz
    dof rx ry rz
  end
  begin
    id 13
    name LeftArm
    direction 0.998561 -0.00100056 -0.0536182
    length 10.3537
    axis -23.1894 0.134784 0.967509 xyz
    dof rx ry rz
  end
  begin
    id 14
    name LeftForeArm
    direction 0.998903 0.00866432 0.046012
    length 8.70632
    axis -9.91835 -0.06569 -0.177794 xyz
    dof rx ry rz
  end
  begin
    id 15
    name LeftHand
    direction 0 0 0
    length 0
    axis 0 0 0 xyz
    dof rx ry rz
  end
  begin
    id 16
    name RightShoulderDummy
    direction -0.998891 -0.0402509 -0.0244414
    length 3.5433
    axis -0.001389 0.000121451 1.30017e-006 xyz
  end
  begin
    id 17
    name RightShoulder
    direction -0.99951 -0.000327807 0.0313133
    length 4.05031
    axis 0.215806 0.000203643 -0.0068026 xyz
    dof rx ry rz
  end
  begin
    id 18
    name RightArm
    direction -0.998573 -0.000999564 -0.053403
    length 10.3947
    axis -23.2009 -0.134239 -0.964101 xyz
    dof rx ry rz
  end
  begin
    id 19
    name RightForeArm
    direction -0.998898 0.00868028 0.0461306
    length 8.68355
    axis -9.92322 0.0658061 0.178868 xyz
    dof rx ry rz
  end
  begin
    id 20
    name RightHand
    direction 0 0 0
    length 0
    axis 0 0 0 xyz
    dof rx ry rz
  end
  begin
    id 21
    name LeftUpLegDummy
    direction 0.718183 -0.695806 0.00816078
    length 4.904
    axis 0 0 0 xyz
  end
  begin
    id 22
    name LeftUpLeg
    direction -6.81752e-006 -0.995793 0.0916337
    length 17.4976
    axis -3.48766 0.00143442 -0.000524262 xyz
    dof rx ry rz
  end
  begin
    id 23
    name LeftLeg
    direction -0.00601358 -0.995091 -0.0987824
    length 16.5821
    axis 3.68178 -0.00654042 -0.000285133 xyz
    dof rx ry rz
  end
  begin
    id 24
    name LeftFoot
    direction -0.00417578 -0.460984 0.887399
    length 3.77069
    axis 1.87233e-006 4.66016e-005 -8.6538e-006 xyz
    dof rx ry rz
  end
  begin
    id 25
    name LeftToes
    direction 0 0 0
    length 0
    axis 0 0 0 xyz
    dof rx ry rz
  end
:hierarchy
  begin
    root RightUpLegDummy SpineDummy LeftUpLegDummy
    RightUpLegDummy RightUpLeg
    RightUpLeg RightLeg
    RightLeg RightFoot
    RightFoot RightToes
    SpineDummy Spine
    Spine Spine1
    Spine1 HEadDummy LeftShoulder1Dummy RightShoulderDummy
    HEadDummy HEad
    LeftShoulder1Dummy LeftShoulder1
    LeftShoulder1 LeftArm
    LeftArm LeftForeArm
    LeftForeArm LeftHand
    RightShoulderDummy RightShoulder
    RightShoulder RightArm
    RightArm RightForeArm
    RightForeArm RightHand
    LeftUpLegDummy LeftUpLeg
    LeftUpLeg LeftLeg
    LeftLeg LeftFoot
    LeftFoot LeftToes
  end

:SAMPLES-PER-SECOND 30
:FULLY-SPECIFIED
:DEGREES
50
root  66.795 39.216 -2.85718 -54.7704 -84.9485 53.2853
RightUpLeg  10.6456 -10.9173 -7.92627
RightLeg  11.6521 -1.37152 3.99124
RightFoot  -19.8167 0.0208059 2.08992
RightToes  0.000481922 0.542163 -0.142578
Spine  3.43639 2.10595 9.26662
Spine1  12.6348 5.2181 -8.82755
HEad  -11.6456 -3.49308 -3.06384
LeftShoulder1  9.71688 -13.8026 -49.0206
LeftArm  -11.8355 19.2461 -20.6601
LeftForeArm  27.0584 -26.2531 -4.18414
LeftHand  -0.25398 0.0180481 5.50724
RightShoulder  5.98726 10.5411 36.6303
RightArm  -0.29266 17.2403 35.7446
RightForeArm  -0.996891 29.5594 6.48443
RightHand  -1.82151 5.52107 -19.5807
LeftUpLeg  -22.2944 9.98555 -7.80086
LeftLeg  15.5605 2.34662 0.765707
LeftFoot  0.62668 0.55522 -5.3274
LeftToes  1.06245e-005 4.65869e-005 -8.65513e-006
51
root  65.9662 39.0684 -2.77505 -55.3168 -85.1075 54.1254
RightUpLeg  11.8863 -11.0282 -8.33605
RightLeg  11.4581 -0.546805 4.16628
RightFoot  -20.5293 0.117718 3.18501
RightToes  0.000481922 0.542163 -0.142578
Spine  3.17789 2.05907 8.93499
Spine1  12.9926 5.22194 -8.99515
HEad  -12.6794 -3.1558 -3.09766
LeftShoulder1  9.73972 -13.7831 -49.1913
LeftArm  -7.56808 19.9712 -21.4641
LeftForeArm  26.0542 -23.6954 -3.7377
LeftHand  -0.25398 0.0180481 5.50724
RightShoulder  5.99468 10.6011 36.5051
RightArm  0.920656 17.7767 35.7279
RightForeArm  -0.0651624 32.3436 7.147
RightHand  -1.88665 5.60584 -20.1056
LeftUpLeg  -22.1039 9.08488 -7.82079
LeftLeg  11.8538 5.90387 -0.0977339
LeftFoot  0.748244 0.417545 -3.97395
LeftToes  1.06245e-005 4.65869e-005 -8.65513e-006
52
root  65.0157 38.868 -2.64161 -56.4168 -85.3085 55.3993
RightUpLeg  13.2834 -11.4887 -9.04505
RightLeg  11.6629 0.86053 4.3988
RightFoot  -21.3515 0.266444 4.69594
RightToes  0.000481922 0.542163 -0.142578
Spine  3.13852 1.96355 8.6309
Spine1  13.0031 5.20819 -9.29511
HEad  -13.5965 -2.81489 -2.87934
LeftShoulder1  9.74657 -13.8285 -49.0968
LeftArm  -3.78068 21.0594 -22.5624
LeftForeArm  28.592 -20.8981 -3.57353
LeftHand  -0.25398 0.0180481 5.50724
RightShoulder  5.94083 10.4984 36.4347
RightArm  2.16808 17.033 35.932
RightForeArm  1.49841 34.999 7.78366
RightHand  -1.79132 5.2792 -19.6791
LeftUpLeg  -21.9177 7.86052 -7.70623
LeftLeg  10.6833 10.0521 -0.556399
LeftFoot  0.766381 0.265266 -2.55464
LeftToes  1.06245e-005 4.65869e-005 -8.65513e-006
53
root  63.9304 38.6634 -2.46654 -62.3155 -85.5855 61.3921
RightUpLeg  14.527 -12.3745 -10.0731
RightLeg  12.684 2.85668 4.32269
RightFoot  -21.7251 0.380075 5.80257
RightToes  0.000481922 0.542163 -0.142578
Spine  2.96522 1.95236 7.88566
Spine1  12.9386 5.19185 -9.29714
HEad  -14.4031 -2.35397 -2.58123
LeftShoulder1  9.80022 -13.9168 -49.117
LeftArm  -2.3335 22.3004 -23.5018
LeftForeArm  35.2943 -17.6145 -4.15301
LeftHand  -0.25398 0.0180481 5.50724
RightShoulder  5.94432 10.4626 36.5647
RightArm  3.96617 15.3957 36.1207
RightForeArm  3.1003 36.9075 8.24088
RightHand  -1.69952 5.11683 -18.9847
LeftUpLeg  -21.8389 8.77699 -8.71891
LeftLeg  11.6817 10.7584 0.0992936
LeftFoot  1.99977 -0.00810877 -0.0763547
LeftToes  1.06245e-005 4.65869e-005 -8.65513e-006
54
root  62.7464 38.5059 -2.27749 -73.8177 -85.5661 72.795
RightUpLeg  15.4125 -13.5453 -11.49
RightLeg  14.9544 5.33157 3.68365
RightFoot  -21.4985 0.463144 6.83055
RightToes  0.000481922 0.542163 -0.142578
Spine  2.78356 2.02977 6.06217
Spine1  12.9419 5.05187 -8.54229
HEad  -15.2697 -1.89033 -2.31257
LeftShoulder1  9.90061 -13.9287 -49.5865
LeftArm  -2.99728 23.18 -23.8975
LeftForeArm  42.725 -13.7524 -5.20107
LeftHand  -0.25398 0.0180481 5.50724
RightShoulder  6.0303 10.4762 37.1216
RightArm  6.39465 13.4622 36.0826
RightForeArm  4.12621 37.3343 8.30713
RightHand  -1.66316 5.19682 -18.4585
LeftUpLeg  -21.7214 10.7903 -10.5341
LeftLeg  14.1355 9.05886 1.52613
LeftFoot  3.07683 -0.469153 3.595
LeftToes  1.06245e-005 4.65869e-005 -8.65513e-006
